<svg xmlns="http://www.w3.org/2000/svg" xmlns:xlink="http://www.w3.org/1999/xlink" viewBox="0 0 512 512"><defs><linearGradient id="linear-gradient" x1="256" y1="512.35" x2="256" y2="0.67" gradientUnits="userSpaceOnUse"><stop offset="0" stop-color="#934008"/><stop offset="0.02" stop-color="#96440a"/><stop offset="0.05" stop-color="#9d500e"/><stop offset="0.07" stop-color="#aa6516"/><stop offset="0.1" stop-color="#bb8121"/><stop offset="0.12" stop-color="#d2a630"/><stop offset="0.14" stop-color="#eed241"/><stop offset="0.16" stop-color="#ffee4c"/><stop offset="0.45" stop-color="#f8df46"/><stop offset="0.53" stop-color="#d9ad23"/><stop offset="0.61" stop-color="#ba7b00"/><stop offset="0.82" stop-color="#b15300"/><stop offset="0.93" stop-color="#fac029"/></linearGradient><linearGradient id="linear-gradient-2" x1="256" y1="508.27" x2="256" y2="4.75" gradientUnits="userSpaceOnUse"><stop offset="0" stop-color="#934008"/><stop offset="0.07" stop-color="#96440a"/><stop offset="0.14" stop-color="#9d500e"/><stop offset="0.21" stop-color="#aa6516"/><stop offset="0.29" stop-color="#bc8121"/><stop offset="0.36" stop-color="#d4a630"/><stop offset="0.43" stop-color="#f0d241"/><stop offset="0.45" stop-color="#f8df46"/><stop offset="0.59" stop-color="#deac2d"/><stop offset="0.82" stop-color="#b15300"/></linearGradient><linearGradient id="linear-gradient-3" x1="256" y1="498.07" x2="256" y2="6.79" gradientUnits="userSpaceOnUse"><stop offset="0.07" stop-color="#fac029"/><stop offset="0.3" stop-color="#b15300"/><stop offset="0.48" stop-color="#ba7b00"/><stop offset="0.57" stop-color="#d9ad23"/><stop offset="0.68" stop-color="#f8df46"/><stop offset="0.84" stop-color="#ffee4c"/><stop offset="0.86" stop-color="#eed241"/><stop offset="0.88" stop-color="#d2a630"/><stop offset="0.9" stop-color="#bb8121"/><stop offset="0.93" stop-color="#aa6516"/><stop offset="0.95" stop-color="#9d500e"/><stop offset="0.98" stop-color="#96440a"/><stop offset="1" stop-color="#934008"/></linearGradient><linearGradient id="Degradado_sin_nombre_11" x1="134.86" y1="264" x2="390.18" y2="264" gradientUnits="userSpaceOnUse"><stop offset="0.16" stop-color="#ffee4c"/><stop offset="0.45" stop-color="#f8df46"/></linearGradient></defs><title>yahoo-other</title><g style="isolation:isolate"><g id="Layer_1" data-name="Layer 1"><path d="M256,512.35C115,512.35.23,397.58.23,256.51S115,.67,256,.67,511.77,115.44,511.77,256.51,397,512.35,256,512.35Z" fill="url(#linear-gradient)"/><path d="M256,504.19C117.22,504.19,4.31,391.25,4.31,252.43S117.22.67,256,.67,507.69,113.61,507.69,252.43,394.78,504.19,256,504.19Z" fill="none" stroke="#a57100" stroke-miterlimit="10" stroke-width="2.04" style="mix-blend-mode:screen"/><path d="M256,508.27C117.22,508.27,4.31,395.33,4.31,256.51S117.22,4.75,256,4.75,507.69,117.69,507.69,256.51,394.78,508.27,256,508.27Z" fill="url(#linear-gradient-2)"/><ellipse cx="256" cy="252.43" rx="245.57" ry="245.64" fill="url(#linear-gradient-3)"/><ellipse cx="256" cy="252.43" rx="245.57" ry="245.64" fill="none" stroke="#a57100" stroke-miterlimit="10" stroke-width="2.04" style="mix-blend-mode:hard-light"/><path d="M256,512.35C115,512.35.23,397.58.23,256.51S115,.67,256,.67,511.77,115.44,511.77,256.51,397,512.35,256,512.35Zm0-468.87c-117.43,0-213,95.57-213,213s95.54,213,213,213,213-95.57,213-213S373.43,43.48,256,43.48Z" fill="url(#linear-gradient)"/><g style="mix-blend-mode:screen"><path d="M256,504.19C117.22,504.19,4.31,391.25,4.31,252.43S117.22.67,256,.67,507.69,113.61,507.69,252.43,394.78,504.19,256,504.19Zm0-468.87c-119.68,0-217.05,97.4-217.05,217.11S136.31,469.54,256,469.54s217.06-97.4,217.06-217.12S375.68,35.31,256,35.31Z" fill="none" stroke="#a57100" stroke-miterlimit="10" stroke-width="2.04"/></g><path d="M256,508.27C117.22,508.27,4.31,395.33,4.31,256.51S117.22,4.75,256,4.75,507.69,117.69,507.69,256.51,394.78,508.27,256,508.27Zm0-468.87c-119.68,0-217.05,97.4-217.05,217.11S136.31,473.63,256,473.63s217.06-97.4,217.06-217.12S375.68,39.39,256,39.39Z" fill="url(#linear-gradient-2)"/><path d="M256,29.19c123.06,0,223.18,100.14,223.18,223.24S379.06,475.67,256,475.67,32.82,375.52,32.82,252.43,132.94,29.19,256,29.19m0-22.4c-135.62,0-245.57,110-245.57,245.64S120.37,498.07,256,498.07s245.57-110,245.57-245.64S391.62,6.79,256,6.79Z" fill="url(#linear-gradient-3)"/><g style="mix-blend-mode:hard-light"><path d="M256,29.19c123.06,0,223.18,100.14,223.18,223.24S379.06,475.67,256,475.67,32.82,375.52,32.82,252.43,132.94,29.19,256,29.19m0-22.4c-135.62,0-245.57,110-245.57,245.64S120.37,498.07,256,498.07s245.57-110,245.57-245.64S391.62,6.79,256,6.79Z" fill="none" stroke="#a57100" stroke-miterlimit="10" stroke-width="2.04"/></g><path d="M353.62,206.35c-1.17.33-3.59,2.34-7.33,5.92l-13.09,13.67-16.37,18.15c-5.71,6.47-10.88,12.93-15.65,19.34s-9,11.93-12.58,16.85-5.94,8.57-7,11.25a102.31,102.31,0,0,0-.36,11.52c0,6.4.1,13.36.18,20.89s.23,14.61.37,21.37.26,11.11.52,13.34c.91.33,3.25.47,7,.47h11.83c4.28,0,8.28.14,12,.27a38.79,38.79,0,0,1,7.74.88l-.36,17.85c-1.35,0-4.41-.07-9.22-.27s-10.39-.21-16.73-.21H256.9c-2.57,0-6.43.07-11.51.21s-10.45.35-16.25.53-11.24.28-16.36.28H201.28l2.06-17h7.15c3.47,0,7-.06,10.57-.21a44.52,44.52,0,0,0,10.26-1.41,11.94,11.94,0,0,0,7.15-4.66c.68-1,1.13-4.44,1.35-10.37s.32-12.68.32-20.22.07-14.87.13-21.77.18-11.52.32-13.82c.27-1.41-1.13-4.83-4.23-10.3s-6.88-12.2-11.37-20.15L210.36,232.9,195.2,206.08l-13.89-21.23c-4.22-6.35-7.56-10.67-9.94-12.94H134.86V149.33H255.15V151h.31l-.31,3.9v17H218.41l13.8,25.89,14.12,26.47,12.54,23.46,9.76,18.41,49-62.16H287.84L284,181.39H390.18l-.85,1.49h.54L382,198h-.36l-3.15,6H359.92a9.35,9.35,0,0,1-3.33,1.43c-1.08.34-2.06.6-3,.94Z" fill="url(#Degradado_sin_nombre_11)"/><path d="M351.58,204.31c-1.17.33-3.59,2.34-7.33,5.92L331.17,223.9,314.8,242c-5.71,6.47-10.88,12.93-15.65,19.34s-9,11.93-12.58,16.85-5.94,8.57-7,11.25a102.31,102.31,0,0,0-.36,11.52c0,6.4.1,13.36.18,20.89s.23,14.61.37,21.37.26,11.11.52,13.34c.91.33,3.25.47,7,.47h11.83c4.28,0,8.28.14,12,.27a38.79,38.79,0,0,1,7.74.88l-.36,17.85c-1.35,0-4.41-.07-9.22-.27s-10.39-.21-16.73-.21H254.86c-2.57,0-6.43.07-11.51.21s-10.45.35-16.25.53-11.24.28-16.36.28H199.24l2.06-17h7.15c3.47,0,7-.06,10.57-.21A44.52,44.52,0,0,0,229.27,358a11.94,11.94,0,0,0,7.15-4.66c.68-1,1.13-4.44,1.35-10.37s.32-12.68.32-20.22.07-14.87.13-21.77.18-11.52.32-13.82c.27-1.41-1.13-4.83-4.23-10.3s-6.88-12.2-11.37-20.15l-14.61-25.87L193.16,204l-13.89-21.23c-4.22-6.35-7.56-10.67-9.94-12.94H132.82V147.28H253.11V149h.31l-.31,3.9v17H216.37l13.8,25.89,14.12,26.47,12.54,23.46,9.76,18.41,49-62.16H285.8L282,179.35H388.14l-.85,1.49h.54l-7.91,15.1h-.36l-3.15,6H357.88a9.35,9.35,0,0,1-3.33,1.43c-1.08.34-2.06.6-3,.94Z" fill="#633e00"/></g></g></svg>